<?xml version="1.0" encoding="utf-8"?>
<!-- Generator: Adobe Illustrator 26.3.1, SVG Export Plug-In . SVG Version: 6.00 Build 0)  -->
<svg version="1.1" id="Layer_1" xmlns="http://www.w3.org/2000/svg" xmlns:xlink="http://www.w3.org/1999/xlink" x="0px" y="0px"
	 viewBox="0 0 1001.9 555.5" style="enable-background:new 0 0 1001.9 555.5;" xml:space="preserve">
<style type="text/css">
	.st0{fill:#3F3A59;}
	.st1{fill:#81C244;}
	.st2{fill:#FFFFFF;}
	.st3{fill:#7EC243;}
</style>
<g>
	<g>
		<g>
			<path class="st0" d="M102.6,504.4v40.1H15.3V422.4H0v-3.2h98.4v33.2h-3.6C89.7,439,84.1,430.6,78,427.1
				c-5.5-3.1-16.5-4.7-32.9-4.7h-5.7v56.8c4.6,0,7.6-0.1,8.9-0.4c4.5-0.9,9.1-3.8,13.7-8.7c4.7-4.9,7-9.5,7-13.6h2v50.8h-2
				c0-3.8-2.3-8.5-7-14.2s-9-9-13-9.8c-2.3-0.5-5.5-0.8-9.7-0.8v58.7h6.5c16.6,0,28.9-3.1,37-9.2c7.3-5.4,12.9-14.6,16.8-27.8
				L102.6,504.4L102.6,504.4z"/>
			<path class="st0" d="M240,544.5h-36.9l-14.3-39.2h-40L138,535.7c-5.3,14.4-12,20.9-20.3,19.7c-3.2-0.6-5.9-1.9-8.1-3.8
				c-2.2-1.9-3-4.3-2.4-7c0.5-2.6,1.9-4.7,4.2-6.3s4.9-2.1,7.9-1.6c2.6,0.4,5.2,2.1,8.1,5.1c1.1,0.1,2.4-0.8,4-2.8
				c1.2-1.6,2.1-3.1,2.6-4.5c8.9-23.7,23-62,42.4-114.9h4l46.1,122.3H240V544.5L240,544.5z M187.7,502.5l-19.1-51.1L150,502.5H187.7
				z"/>
			<path class="st0" d="M257.4,540.6c-10-5.2-15-11.7-15-19.3c0-3.6,1.2-6.8,3.6-9.6c2.4-2.8,5.5-4.1,9.3-4.1c3.2,0,6.1,1.1,8.5,3.4
				c2.4,2.2,3.6,4.9,3.6,7.9s-1.1,5.5-3.2,7.6c-2.2,2.1-4.8,3-7.9,2.9c1.1,4.8,5.5,8.6,13.1,11.6c6.3,2.6,12.5,3.9,18.6,3.9
				c8.2,0,15.1-2.6,20.6-7.9c5.5-5.2,8.3-11.7,8.3-19.3c0-5.5-0.8-10.2-2.4-14.1c-2.6-6.1-10-10.7-22.4-13.7
				c-17.8-4.4-28.2-7.3-31.3-8.8c-10.5-5.4-15.8-14.2-15.8-26.4c0-11.5,3.7-20.7,11-27.7s17.2-10.4,29.6-10.4
				c7.3,0,14.7,1.7,22.2,5.1c9.2,4,13.7,9.1,13.7,15.2c0,2.9-1.1,5.4-3.2,7.6c-2.2,2.2-4.8,3.3-7.9,3.3c-2.8,0-5.4-1-7.7-3
				c-2.3-2-3.4-4.4-3.4-7.1s2.2-5.8,6.7-9.2c-5.8-6-13.7-9-23.8-9c-7.7,0-13.8,2.2-18.4,6.5s-6.9,10.1-6.9,17.3
				c0,11.1,6.3,18.2,18.8,21.2c11.7,2.6,23.4,5.2,35,7.9c12.5,5.6,18.8,17.1,18.8,34.5c0,12.4-4.3,22.2-12.9,29.4
				c-8.6,7.2-19.7,10.9-33.1,10.9C274.5,547.1,265.8,544.9,257.4,540.6z"/>
			<path class="st0" d="M451,458.6c-0.9,0.1-2.3,0-4-0.4c0-9.2-4.2-17.5-12.7-24.8s-17.7-11-27.5-11v118.9h17.4v3.2l-41,0.2V422.4
				c-10.9,0-20.2,3.6-27.9,10.9c-7.3,6.6-12,15.1-14.1,25.3h-2.8l0.2-39.4H451V458.6L451,458.6z"/>
			<path class="st0" d="M559.3,429.4c2-5.9,3.1-10.6,3.1-14.3c0-3.2-0.9-5.1-2.6-5.6c-3.8,1.4-7.3,1.6-10.5,0.8
				c-4.7-1.1-7.1-3.9-7.1-8.4c0-3,1-5.5,3.1-7.4s4.8-2.9,8.2-2.9c1.1,0,2.2,0.1,3.2,0.4c6.9,1.8,10.3,7,10.3,15.8
				c0,5.5-1.5,13.2-4.6,23.1c-1.6,5.1-4.3,13.3-8,24.6l20.7,56.4l24.3-67.8c2.4-6.2,3.6-11.2,3.6-15c0-2.9-0.9-4.5-2.6-4.9
				c-3.2,1.1-6.3,1.3-9.1,0.6c-4.7-1.1-7.1-3.9-7.1-8.2c0-3,1.1-5.5,3.2-7.5c2.2-2,4.8-3,8.1-3c1.1,0,2.2,0.1,3.2,0.4
				c6.5,1.6,9.7,6.3,9.7,14.1c0,5.4-2,13.6-6.1,24.8l-35,99.4h-3.2l-23.7-61.1c-6.2,17.1-13.7,37.5-22.6,61.1h-3.2l-46.5-122.1
				h-13.5v-3l37.1,0.2l33.8,92.2l12.7-34.4l-22.4-58.1H541l11.2,31.2C554.4,444.5,556.7,437.5,559.3,429.4z"/>
			<path class="st0" d="M738.5,481.1c0,17.1-5.3,32.1-16,45c-11.5,14.1-26.1,21.2-43.8,21.2c-16.7,0-30.8-7.2-42.2-21.6
				c-10.6-13.2-16-27.9-16-44.1c0-15,5.5-29.3,16.6-42.9c11.8-14.8,25.6-22.1,41.2-22.1c4.4,0,9.8,0.7,16.2,2.1
				c12.1,2.6,22.6,10.9,31.5,24.8C734.3,456.2,738.5,468.7,738.5,481.1z M713.3,477.4c0-12.9-0.7-22.8-2-29.8
				c-2.3-12.9-7-20.9-14.2-24c-5.5-2.4-12.1-3.6-19.8-3.6c-5.4,0-10.6,1.2-15.6,3.6c-5.8,2.8-9.3,6.3-10.5,10.7
				c-2.3,7.8-3.4,21.6-3.4,41.6c0,1.6-0.1,4.6-0.2,8.8c0,4.1,0,7.4,0,9.9c0,14.6,1.7,25.7,5,33.2c4.8,10.8,13.5,16.1,26.1,16.1
				c8.2,0,14.5-1.1,19-3.4C708.1,535.4,713.3,514.4,713.3,477.4z"/>
			<path class="st0" d="M868.4,481.1c0,17.1-5.3,32.1-16,45c-11.5,14.1-26.1,21.2-43.8,21.2c-16.7,0-30.8-7.2-42.2-21.6
				c-10.6-13.2-16-27.9-16-44.1c0-15,5.5-29.3,16.6-42.9c11.8-14.8,25.6-22.1,41.2-22.1c4.4,0,9.8,0.7,16.2,2.1
				c12.1,2.6,22.6,10.9,31.5,24.8C864.3,456.2,868.4,468.7,868.4,481.1z M843.2,477.4c0-12.9-0.7-22.8-2-29.8
				c-2.3-12.9-7-20.9-14.2-24c-5.5-2.4-12.1-3.6-19.8-3.6c-5.4,0-10.6,1.2-15.6,3.6c-5.8,2.8-9.3,6.3-10.5,10.7
				c-2.3,7.8-3.4,21.6-3.4,41.6c0,1.6-0.1,4.6-0.2,8.8c0,4.1,0,7.4,0,9.9c0,14.6,1.7,25.7,5,33.2c4.8,10.8,13.5,16.1,26.1,16.1
				c8.2,0,14.5-1.1,19-3.4C838,535.4,843.2,514.4,843.2,477.4z"/>
			<path class="st0" d="M1001,490.9c-6.5,35.8-29.7,53.6-69.7,53.6h-36.6V422.4h-16v-3.2l60-0.2c4.6,0,11.2,0.5,19.8,1.5
				c12.8,1.6,23.4,8.4,31.7,20.2c7.8,11.1,11.7,23.9,11.7,38.4C1002,483.2,1001.7,487.1,1001,490.9z M976.1,467.8
				c0-21.9-6.5-35.9-19.4-42.2c-5.1-2.5-14.3-3.6-27.5-3.4l-10.7,0.2v118.9h14.6c8.3,0,14.4-0.6,18.2-1.7
				c12.1-3.6,19.8-13.9,23-30.9C975.5,502.2,976.1,488.5,976.1,467.8z"/>
		</g>
	</g>
	<g>
		<path class="st1" d="M501.5,273.2c-0.3,0.1-0.7,0.1-1,0c-116.8-51.3-114.3-112-114.3-112V20.5c0-0.7,0.6-1.3,1.3-1.3h227
			c0.7,0,1.3,0.6,1.3,1.3v140.7C615.8,161.2,618.3,221.9,501.5,273.2z"/>
		<g>
			<g>
				<path class="st2" d="M502.4,103.2c-3.5,10.9-8.4,18.6-14.9,23c-4.7,3.3-10.9,5.5-18.7,6.7c-4.2,0.6-8.9,1-14.1,1H449V85.2
					c3.7,0,6.6,0.2,8.6,0.6c3.6,0.7,7.4,3.5,11.5,8.2s6.2,8.6,6.2,11.8h1.8V63.6h-1.8c0,3.4-2.1,7.2-6.2,11.3
					c-4.1,4.1-8.2,6.5-12.2,7.2c-1.2,0.2-3.9,0.3-8,0.3V35.3h5c14.6,0,24.3,1.3,29.2,3.9c5.4,2.9,10.3,9.9,14.9,21h3.2V32.7H414v2.6
					h13.6v101.3H505v-33.3L502.4,103.2L502.4,103.2z"/>
			</g>
			<g>
				<path class="st2" d="M564.5,119.5c-1-0.2-1.9-0.3-2.9-0.3c-2.9,0-5.3,0.9-7.3,2.6c-1.9,1.8-2.9,4-2.9,6.6c0,3.9,2.1,6.2,6.4,7.2
					c2.5,0.6,5.3,0.5,8.2-0.5c1.6,0.3,2.4,1.8,2.4,4.3c0,3.3-1.1,7.7-3.3,13.1L543.2,212l-18.7-49.5c3.4-9.9,5.8-17,7.2-21.5
					c2.8-8.7,4.2-15.4,4.2-20.2c0-7.7-3.1-12.3-9.3-13.8c-1-0.2-1.9-0.3-2.9-0.3c-3,0-5.5,0.9-7.3,2.5c-1.9,1.7-2.8,3.9-2.8,6.5
					c0,4,2.1,6.4,6.4,7.4c2.9,0.8,6.1,0.5,9.5-0.7c1.6,0.4,2.4,2.1,2.4,4.9c0,3.2-0.9,7.4-2.8,12.5c-2.3,7.1-4.4,13.3-6.2,18.4
					l-10.2-27.3H490l2.2,5.5l18,45.4l-11.5,30.1l-28.5-75.5l-1.3-3.6c-4.2,0.6-8.9,1-14.1,1H449V131l-14.3-0.1v2.6h12.2l1.1,2.8
					l40.7,104.2h2.9c8-20.7,14.8-38.6,20.4-53.6l21.4,53.6h2.9l31.5-87.1c3.7-9.8,5.5-17,5.5-21.7
					C573.2,125,570.3,120.9,564.5,119.5z"/>
			</g>
		</g>
		<path class="st0" d="M501,297c-0.3,0-0.7-0.1-1-0.2c-70.6-30.8-103.2-64.7-118.2-87.7c-16.3-25-15.8-42.5-15.7-43.3V2.5
			c0-1.4,1.1-2.5,2.5-2.5h264.9c1.4,0,2.5,1.1,2.5,2.5v163.4c0,0.7,0.6,18.2-15.7,43.2c-14.9,23-47.6,56.8-118.2,87.7
			C501.7,296.9,501.3,297,501,297z M368.6,2.1c-0.3,0-0.5,0.2-0.5,0.5v163.3c0,0.2-0.5,17.8,15.5,42.3
			c14.8,22.7,47.2,56.2,117.2,86.8c0.1,0.1,0.3,0.1,0.4,0l0,0c70-30.6,102.4-64.1,117.2-86.8c16-24.5,15.5-42.1,15.5-42.3V2.5
			c0-0.3-0.2-0.5-0.5-0.5H368.6V2.1z"/>
		<g>
			<path class="st3" d="M737.3,283.6c-8.2,9.3-19.1,14.3-30.5,18.2c-1.8,0.6-3.8,1-5.5,1.9c-2.1,1.2-4.3,2.8-4,5.6
				c0.3,2.7,2.9,3.2,4.9,3.8c7,2.1,14.4,2.2,23.3,2.9c-6.4,5.9-13.3,6.9-20,7.8c-19.2,2.4-37.5-1.8-55.3-8.5
				c-9.8-3.7-19.6-7.5-29.5-11c-2.2-0.8-5-2-7.3-0.7c-1.8,1-2.7,3.4-2.2,5.4c0.8,3.7,5,5.4,8.2,6.7c1.6,0.7,2.2,0.4,0.8,1.7
				c-1.5,1.5-6.2,3.4-8.5,3.6c-9,0.9-17.1-2.4-24.5-7.2c-5.4-3.5-10.5-7.3-16.5-9.6c-9.5-3.6-22.2-3.2-30.8,2.6
				c-3.4,2.3-6.6,4.8-9.8,7.4c-11.1,9.3-20.8,20.6-27.8,33.3c-0.3,0.5-0.5,1-0.8,1.5c-0.2,0.3-0.3,0.5-0.4,0.8
				c-0.1-0.3-0.3-0.5-0.4-0.8c0.1-0.6,0.3-1.1,0.4-1.7c0-0.1,0.1-0.2,0.1-0.3c1.5-4.7,3.5-9.2,5.7-13.6c7-13.5,17.1-25.4,29.8-33.9
				c13.8-9.2,29-14.2,45.5-15.1c22.5-1.2,45.1-1.4,67.6-1.8c28.2-0.6,55.6-4.8,80.6-19.1c6-3.4,11-8.1,17.3-13.2
				C750.1,264,745.4,274.4,737.3,283.6z"/>
			<path class="st3" d="M501.4,349.1c-0.2,0.3-0.3,0.5-0.4,0.8c-0.1-0.3-0.3-0.5-0.4-0.8c-0.2-0.5-0.5-1-0.8-1.5
				c-7-12.7-16.7-24-27.8-33.3c-3.1-2.6-6.4-5.1-9.7-7.4c-8.6-5.8-21.3-6.2-30.8-2.6c-6,2.2-11.1,6.1-16.5,9.6
				c-7.5,4.8-15.5,8.1-24.5,7.2c-2.3-0.2-7.1-2.2-8.5-3.6c-1.3-1.3-0.8-1.1,0.8-1.7c3.2-1.2,7.3-3,8.2-6.7c0.5-2-0.3-4.4-2.2-5.4
				c-2.3-1.3-5.1-0.1-7.3,0.7c-9.9,3.5-19.8,7.3-29.5,11c-17.9,6.7-36.1,10.9-55.4,8.5c-6.7-0.8-13.6-1.9-20-7.8
				c8.9-0.7,16.2-0.8,23.3-2.9c2-0.6,4.6-1.1,4.9-3.8c0.4-2.9-1.8-4.5-4-5.6c-1.7-0.9-3.7-1.3-5.5-1.9c-11.5-3.9-22.4-8.9-30.5-18.2
				c-8.1-9.2-12.8-19.6-10.4-33.3c6.3,5.1,11.3,9.8,17.3,13.2c25,14.3,52.5,18.6,80.6,19.1c22.5,0.5,45.1,0.6,67.6,1.8
				c16.6,0.9,31.8,5.9,45.5,15.1c12.7,8.5,22.8,20.3,29.8,33.9c2.2,4.4,4.2,8.9,5.7,13.6c0,0.1,0.1,0.2,0.1,0.3
				C501.2,347.9,501.3,348.5,501.4,349.1z"/>
		</g>
	</g>
</g>
</svg>
